<svg xmlns="http://www.w3.org/2000/svg" viewBox="0 0 40 40" fill="none">
  <rect width="40" height="40" rx="12" fill="#86909C"/>
  <path fill-rule="evenodd" clip-rule="evenodd" d="M20.7679 13.1541C21.9239 13.548 22.5275 14.7702 22.1285 15.8814C21.7193 16.9925 20.4508 17.5783 19.2948 17.1945C18.1388 16.8005 17.5352 15.5783 17.9342 14.4672C18.3434 13.346 19.6119 12.7601 20.7679 13.1541ZM23.3254 20.8207C23.6528 20.6288 24.0108 20.447 24.3893 20.4268C24.7883 20.4066 25.2998 20.6187 25.5658 20.8915C26.1285 21.4773 26.1694 22.4571 25.5453 23.0127C25.4533 23.1036 25.3305 23.1945 25.2078 23.2652C24.1029 23.8915 23.4686 24.1945 22.2001 24.4672C22.3638 24.5985 22.5377 24.7601 22.6809 24.8915C23.5403 25.7096 24.4098 26.5177 25.2589 27.3359C25.8216 27.8713 25.842 28.649 25.4328 29.2753C24.9929 29.942 24.0927 30.1137 23.3868 29.7298C23.2027 29.6288 23.0288 29.4874 22.8344 29.3056C21.9239 28.4268 21.0032 27.5581 20.0723 26.6995C19.9495 26.8106 19.7449 27.0228 19.5915 27.1743C18.7833 27.9622 17.9956 28.7601 17.1772 29.5379C16.5122 30.1945 15.5097 30.1339 14.8652 29.4672C14.3844 28.9723 14.323 28.1743 14.7527 27.6187C14.9982 27.3258 15.2744 27.0632 15.5506 26.8005C16.1746 26.1743 17.2283 25.2046 17.8012 24.5682C16.768 24.245 15.5097 23.8612 14.6504 23.2551C13.9138 22.7298 13.8115 21.8409 14.3026 21.1339C14.4867 20.8611 14.7527 20.6692 15.1721 20.5682C15.6427 20.4571 16.103 20.5581 16.5225 20.7803C17.7603 21.4571 18.8345 21.8005 20.461 21.6894C21.4636 21.5682 22.4559 21.3157 23.3254 20.8207ZM21.8114 10.2955C24.6042 11.245 26.0671 14.1945 25.085 16.8813C24.1029 19.5682 21.0441 20.9824 18.2513 20.043C15.4585 19.0935 13.9957 16.144 14.9777 13.4571C15.9598 10.7601 19.0186 9.34599 21.8114 10.2955Z" fill="white"/>
</svg>
