<?xml version="1.0" encoding="utf-8"?>
<!-- Generator: Adobe Illustrator 21.1.0, SVG Export Plug-In . SVG Version: 6.00 Build 0)  -->
<svg version="1.1" id="Layer_1" xmlns="http://www.w3.org/2000/svg" xmlns:xlink="http://www.w3.org/1999/xlink" x="0px" y="0px"
	 viewBox="0 0 100 100" enable-background="new 0 0 100 100" xml:space="preserve">
<g>
	<path fill="#3792CF" d="M66.938,5.509H8.792c-1.815,0-3.287,1.471-3.287,3.286v82.409c0,1.815,1.471,3.286,3.287,3.286h58.146
		c1.815,0,3.287-1.471,3.287-3.286V8.795C70.225,6.98,68.753,5.509,66.938,5.509z"/>
	<g>
		<circle fill="#FEE36F" cx="37.865" cy="38.034" r="20.73"/>
		<ellipse fill="#FEE36F" cx="37.865" cy="38.034" rx="10.23" ry="20.729"/>
		<path fill="#FEE36F" d="M23.782,22.828c3.698,3.426,8.645,5.523,14.083,5.523s10.386-2.097,14.083-5.523
			c-3.698-3.426-8.645-5.523-14.083-5.523S27.48,19.402,23.782,22.828z"/>
		<path fill="#FEE36F" d="M23.782,53.24c3.698-3.426,8.645-5.523,14.083-5.523s10.386,2.097,14.083,5.523
			c-3.698,3.426-8.645,5.523-14.083,5.523S27.48,56.666,23.782,53.24z"/>
	</g>
	<path fill="#F68C43" d="M91.039,27.755H70.225v44.491h20.815c1.908,0,3.455-1.547,3.455-3.455V31.209
		C94.494,29.301,92.948,27.755,91.039,27.755z"/>
	<path fill="#6AC9CC" d="M70.225,72.245v7.752h13.483c1.908,0,3.455-1.547,3.455-3.455v-4.297H70.225z"/>
	<g>
		<path fill="#136296" d="M66.938,94.997H8.792C6.701,94.997,5,93.296,5,91.205V8.795c0-2.091,1.701-3.792,3.792-3.792h58.146
			c2.091,0,3.792,1.701,3.792,3.792v82.409C70.73,93.296,69.029,94.997,66.938,94.997z M8.792,6.015
			c-1.533,0-2.781,1.247-2.781,2.781v82.409c0,1.533,1.248,2.781,2.781,2.781h58.146c1.533,0,2.781-1.247,2.781-2.781V8.795
			c0-1.533-1.248-2.781-2.781-2.781H8.792z"/>
	</g>
	<g>
		<g>
			<path fill="#136296" d="M37.865,59.268c-11.71,0-21.236-9.526-21.236-21.234S26.155,16.8,37.865,16.8s21.236,9.526,21.236,21.234
				S49.575,59.268,37.865,59.268z M37.865,17.811c-11.152,0-20.225,9.072-20.225,20.223s9.073,20.223,20.225,20.223
				S58.09,49.185,58.09,38.034S49.017,17.811,37.865,17.811z"/>
		</g>
		<g>
			<path fill="#136296" d="M58.596,38.54H17.135c-0.279,0-0.506-0.226-0.506-0.506c0-0.279,0.226-0.506,0.506-0.506h41.461
				c0.279,0,0.506,0.226,0.506,0.506C59.101,38.313,58.875,38.54,58.596,38.54z"/>
		</g>
		<g>
			<path fill="#136296" d="M37.865,59.268c-0.279,0-0.506-0.226-0.506-0.506V17.305c0-0.279,0.226-0.506,0.506-0.506
				s0.506,0.226,0.506,0.506v41.457C38.371,59.042,38.145,59.268,37.865,59.268z"/>
		</g>
		<g>
			<path fill="#136296" d="M37.865,59.268c-5.92,0-10.735-9.526-10.735-21.234S31.945,16.8,37.865,16.8s10.735,9.526,10.735,21.234
				S43.785,59.268,37.865,59.268z M37.865,17.811c-5.362,0-9.724,9.072-9.724,20.223s4.362,20.223,9.724,20.223
				s9.724-9.072,9.724-20.223S43.227,17.811,37.865,17.811z"/>
		</g>
		<g>
			<path fill="#136296" d="M37.865,28.857c-5.365,0-10.489-2.009-14.427-5.658c-0.103-0.096-0.162-0.23-0.162-0.371
				c0-0.141,0.059-0.275,0.162-0.371C27.376,18.809,32.5,16.8,37.865,16.8s10.489,2.009,14.427,5.658
				c0.103,0.096,0.162,0.23,0.162,0.371c0,0.141-0.059,0.275-0.162,0.371C48.354,26.848,43.23,28.857,37.865,28.857z M24.537,22.828
				c3.692,3.239,8.403,5.017,13.328,5.017s9.636-1.778,13.328-5.017c-3.692-3.24-8.403-5.018-13.328-5.018
				S28.229,19.589,24.537,22.828z"/>
		</g>
		<g>
			<path fill="#136296" d="M37.865,59.268c-5.365,0-10.489-2.009-14.427-5.658c-0.103-0.096-0.162-0.23-0.162-0.371
				s0.059-0.275,0.162-0.371c3.938-3.648,9.062-5.658,14.427-5.658s10.489,2.009,14.427,5.658c0.103,0.096,0.162,0.23,0.162,0.371
				s-0.059,0.275-0.162,0.371C48.354,57.259,43.23,59.268,37.865,59.268z M24.537,53.24c3.692,3.239,8.403,5.017,13.328,5.017
				s9.636-1.778,13.328-5.017C47.501,50,42.79,48.223,37.865,48.223S28.229,50,24.537,53.24z"/>
		</g>
	</g>
	<g>
		<path fill="#136296" d="M58.596,69.38H17.135c-0.279,0-0.506-0.226-0.506-0.506s0.226-0.506,0.506-0.506h41.461
			c0.279,0,0.506,0.226,0.506,0.506S58.875,69.38,58.596,69.38z"/>
	</g>
	<g>
		<g>
			<path fill="#FFFFFF" d="M18.904,79.491h-1.77c-0.279,0-0.506-0.226-0.506-0.506s0.226-0.506,0.506-0.506h1.77
				c0.279,0,0.506,0.226,0.506,0.506S19.184,79.491,18.904,79.491z"/>
		</g>
		<g>
			<path fill="#FFFFFF" d="M53.378,79.491h-3.447c-0.279,0-0.506-0.226-0.506-0.506s0.226-0.506,0.506-0.506h3.447
				c0.279,0,0.506,0.226,0.506,0.506S53.658,79.491,53.378,79.491z M46.484,79.491h-3.447c-0.279,0-0.506-0.226-0.506-0.506
				s0.226-0.506,0.506-0.506h3.447c0.279,0,0.506,0.226,0.506,0.506S46.763,79.491,46.484,79.491z M39.589,79.491h-3.447
				c-0.279,0-0.506-0.226-0.506-0.506s0.226-0.506,0.506-0.506h3.447c0.279,0,0.506,0.226,0.506,0.506S39.868,79.491,39.589,79.491z
				 M32.694,79.491h-3.447c-0.279,0-0.506-0.226-0.506-0.506s0.226-0.506,0.506-0.506h3.447c0.279,0,0.506,0.226,0.506,0.506
				S32.973,79.491,32.694,79.491z M25.799,79.491h-3.447c-0.279,0-0.506-0.226-0.506-0.506s0.226-0.506,0.506-0.506h3.447
				c0.279,0,0.506,0.226,0.506,0.506S26.079,79.491,25.799,79.491z"/>
		</g>
		<g>
			<path fill="#FFFFFF" d="M58.596,79.491h-1.77c-0.279,0-0.506-0.226-0.506-0.506s0.226-0.506,0.506-0.506h1.77
				c0.279,0,0.506,0.226,0.506,0.506S58.875,79.491,58.596,79.491z"/>
		</g>
	</g>
	<g>
		<path fill="#FFFFFF" d="M83.708,41.237H70.225c-0.279,0-0.506-0.226-0.506-0.506c0-0.279,0.226-0.506,0.506-0.506h13.483
			c0.279,0,0.506,0.226,0.506,0.506C84.214,41.01,83.988,41.237,83.708,41.237z"/>
	</g>
	<g>
		<path fill="#FFFFFF" d="M89.101,36.012H70.225c-0.279,0-0.506-0.226-0.506-0.506s0.226-0.506,0.506-0.506h18.876
			c0.279,0,0.506,0.226,0.506,0.506S89.38,36.012,89.101,36.012z"/>
	</g>
	<g>
		<path fill="#FFFFFF" d="M89.101,58.258H70.225c-0.279,0-0.506-0.226-0.506-0.506s0.226-0.506,0.506-0.506h18.876
			c0.279,0,0.506,0.226,0.506,0.506S89.38,58.258,89.101,58.258z"/>
	</g>
	<g>
		<path fill="#FFFFFF" d="M89.101,62.976H70.225c-0.279,0-0.506-0.226-0.506-0.506c0-0.279,0.226-0.506,0.506-0.506h18.876
			c0.279,0,0.506,0.226,0.506,0.506C89.607,62.75,89.38,62.976,89.101,62.976z"/>
	</g>
	<g>
		<path fill="#136296" d="M83.708,80.503H70.225c-0.279,0-0.506-0.226-0.506-0.506v-7.752c0-0.279,0.226-0.506,0.506-0.506h16.938
			c0.279,0,0.506,0.226,0.506,0.506v4.297C87.669,78.727,85.892,80.503,83.708,80.503z M70.73,79.492h12.978
			c1.626,0,2.949-1.323,2.949-2.949v-3.792H70.73V79.492z"/>
	</g>
	<g>
		<path fill="#136296" d="M91.039,72.751H70.225c-0.279,0-0.506-0.226-0.506-0.506V27.755c0-0.279,0.226-0.506,0.506-0.506h20.815
			c2.184,0,3.961,1.777,3.961,3.96v37.581C95,70.974,93.223,72.751,91.039,72.751z M70.73,71.74h20.309
			c1.626,0,2.949-1.323,2.949-2.949V31.209c0-1.626-1.323-2.949-2.949-2.949H70.73V71.74z"/>
	</g>
</g>
</svg>
