<?xml version="1.0" encoding="UTF-8" standalone="no"?>
<svg
   xmlns:dc="http://purl.org/dc/elements/1.1/"
   xmlns:cc="http://creativecommons.org/ns#"
   xmlns:rdf="http://www.w3.org/1999/02/22-rdf-syntax-ns#"
   xmlns:svg="http://www.w3.org/2000/svg"
   xmlns="http://www.w3.org/2000/svg"
   xmlns:sodipodi="http://sodipodi.sourceforge.net/DTD/sodipodi-0.dtd"
   xmlns:inkscape="http://www.inkscape.org/namespaces/inkscape"
   inkscape:export-ydpi="768"
   inkscape:export-xdpi="768"
   inkscape:export-filename="D:\project\carlos flat crime eksport\png\law book.png"
   sodipodi:docname="police.svg"
   inkscape:version="1.0 (4035a4fb49, 2020-05-01)"
   id="svg979"
   version="1.1"
   viewBox="0 0 16.933334 16.933333"
   height="48pt"
   width="48pt">
  <defs
     id="defs973" />
  <sodipodi:namedview
     inkscape:snap-nodes="false"
     inkscape:bbox-nodes="true"
     inkscape:snap-bbox="true"
     inkscape:snap-global="true"
     inkscape:document-rotation="0"
     inkscape:window-maximized="1"
     inkscape:window-y="-8"
     inkscape:window-x="-8"
     inkscape:window-height="706"
     inkscape:window-width="1366"
     units="pt"
     showgrid="false"
     inkscape:current-layer="layer1"
     inkscape:document-units="pt"
     inkscape:cy="32"
     inkscape:cx="32"
     inkscape:zoom="8.546875"
     inkscape:pageshadow="2"
     inkscape:pageopacity="0.0"
     borderopacity="1.0"
     bordercolor="#666666"
     pagecolor="#ffffff"
     id="base">
    <inkscape:grid
       id="grid1526"
       type="xygrid" />
    <sodipodi:guide
       inkscape:locked="false"
       id="guide1528"
       orientation="56.666615,0"
       position="0.97013909,15.963209" />
    <sodipodi:guide
       inkscape:locked="false"
       id="guide1530"
       orientation="0,56.666667"
       position="0.97013909,0.97016731" />
    <sodipodi:guide
       inkscape:locked="false"
       id="guide1532"
       orientation="-56.666615,0"
       position="15.963195,0.97016731" />
    <sodipodi:guide
       inkscape:locked="false"
       id="guide1534"
       orientation="0,-56.666667"
       position="15.963195,15.963209" />
  </sodipodi:namedview>
  <metadata
     id="metadata976">
    <rdf:RDF>
      <cc:Work
         rdf:about="">
        <dc:format>image/svg+xml</dc:format>
        <dc:type
           rdf:resource="http://purl.org/dc/dcmitype/StillImage" />
        <dc:title></dc:title>
      </cc:Work>
    </rdf:RDF>
  </metadata>
  <g
     transform="translate(0,-280.06668)"
     id="layer1"
     inkscape:groupmode="layer"
     inkscape:label="Layer 1">
    <g
       style="stroke-width:0.811848"
       transform="matrix(1.2317577,0,0,1.2317577,-26.470024,-42.362032)"
       id="g1129">
      <path
         id="path1212"
         d="m 28.355469,262.55078 a 0.26460996,0.26460996 0 0 0 -0.146485,0.0508 c -0.692288,0.4973 -2.145829,1.09932 -3.005859,1.84961 -0.215007,0.18757 -0.396967,0.38882 -0.517578,0.61719 -0.120611,0.22837 -0.174629,0.49437 -0.115235,0.75976 0.11879,0.53079 0.617066,0.98627 1.558594,1.45704 a 0.26460996,0.26460996 0 0 0 0.117188,0.0293 h 4.234375 a 0.26460996,0.26460996 0 0 0 0.117187,-0.0293 c 0.941529,-0.47077 1.439805,-0.92625 1.558594,-1.45704 0.0594,-0.26539 0.0054,-0.53139 -0.115234,-0.75976 -0.120611,-0.22837 -0.302571,-0.42962 -0.517578,-0.61719 -0.86003,-0.75029 -2.313571,-1.35231 -3.00586,-1.84961 a 0.26460996,0.26460996 0 0 0 -0.162109,-0.0508 z"
         style="color:#000000;font-style:normal;font-variant:normal;font-weight:normal;font-stretch:normal;font-size:medium;line-height:normal;font-family:sans-serif;font-variant-ligatures:normal;font-variant-position:normal;font-variant-caps:normal;font-variant-numeric:normal;font-variant-alternates:normal;font-variant-east-asian:normal;font-feature-settings:normal;font-variation-settings:normal;text-indent:0;text-align:start;text-decoration:none;text-decoration-line:none;text-decoration-style:solid;text-decoration-color:#000000;letter-spacing:normal;word-spacing:normal;text-transform:none;writing-mode:lr-tb;direction:ltr;text-orientation:mixed;dominant-baseline:auto;baseline-shift:baseline;text-anchor:start;white-space:normal;shape-padding:0;shape-margin:0;inline-size:0;clip-rule:nonzero;display:inline;overflow:visible;visibility:visible;isolation:auto;mix-blend-mode:normal;color-interpolation:sRGB;color-interpolation-filters:linearRGB;solid-color:#000000;solid-opacity:1;vector-effect:none;fill:#1d5c87;fill-opacity:1;fill-rule:nonzero;stroke:none;stroke-width:0.429603;stroke-linecap:round;stroke-linejoin:round;stroke-miterlimit:4;stroke-dasharray:none;stroke-dashoffset:0;stroke-opacity:1;color-rendering:auto;image-rendering:auto;shape-rendering:auto;text-rendering:auto;enable-background:accumulate;stop-color:#000000" />
      <path
         id="path1226"
         d="m 27.304688,269.69531 a 0.26460996,0.26460996 0 0 0 -0.101563,0.0195 l -1.056641,0.44141 -1.585937,0.66016 -0.533203,0.22265 a 0.26460996,0.26460996 0 0 0 -0.148438,0.16016 l -0.80664,2.42187 c -0.17813,0.5344 0.22967,1.10157 0.792968,1.10157 h 8.996094 c 0.563299,0 0.971099,-0.56717 0.792969,-1.10157 l -0.806641,-2.42187 a 0.26460996,0.26460996 0 0 0 -0.158203,-0.16406 c -0.180248,-0.0677 -0.360168,-0.13526 -0.539062,-0.20313 l -0.0039,-0.002 -1.597656,-0.64063 c -0.339814,-0.14673 -0.677704,-0.30076 -1.009766,-0.46679 a 0.26460996,0.26460996 0 0 0 -0.117187,-0.0274 z"
         style="color:#000000;font-style:normal;font-variant:normal;font-weight:normal;font-stretch:normal;font-size:medium;line-height:normal;font-family:sans-serif;font-variant-ligatures:normal;font-variant-position:normal;font-variant-caps:normal;font-variant-numeric:normal;font-variant-alternates:normal;font-variant-east-asian:normal;font-feature-settings:normal;font-variation-settings:normal;text-indent:0;text-align:start;text-decoration:none;text-decoration-line:none;text-decoration-style:solid;text-decoration-color:#000000;letter-spacing:normal;word-spacing:normal;text-transform:none;writing-mode:lr-tb;direction:ltr;text-orientation:mixed;dominant-baseline:auto;baseline-shift:baseline;text-anchor:start;white-space:normal;shape-padding:0;shape-margin:0;inline-size:0;clip-rule:nonzero;display:inline;overflow:visible;visibility:visible;isolation:auto;mix-blend-mode:normal;color-interpolation:sRGB;color-interpolation-filters:linearRGB;solid-color:#000000;solid-opacity:1;vector-effect:none;fill:#1d5c87;fill-opacity:1;fill-rule:nonzero;stroke:none;stroke-width:0.429603;stroke-linecap:round;stroke-linejoin:round;stroke-miterlimit:4;stroke-dasharray:none;stroke-dashoffset:0;stroke-opacity:1;color-rendering:auto;image-rendering:auto;shape-rendering:auto;text-rendering:auto;enable-background:accumulate;stop-color:#000000" />
      <path
         id="path1093"
         style="fill:#1a5682;fill-opacity:1;stroke:none;stroke-width:0.429603;stroke-linecap:round;stroke-linejoin:round"
         d="m 27.304793,269.69521 a 0.26460995,0.26460995 0 0 0 -0.101804,0.0196 l -1.056265,0.44132 -1.58595,0.66043 -0.533301,0.2222 a 0.26460995,0.26460995 0 0 0 -0.148311,0.1602 l -0.143144,0.43047 c 1.345859,0.97781 4.880283,0.47368 6.121073,0.88728 0.515432,0.17182 1.250468,1.3554 2.059307,2.20607 h 0.945161 c 0.5633,0 0.970846,-0.56734 0.792718,-1.10174 l -0.80667,-2.42208 a 0.26460995,0.26460995 0 0 0 -0.158131,-0.16381 c -0.180247,-0.0677 -0.36009,-0.13522 -0.538985,-0.20309 l -0.0041,-0.002 -1.597319,-0.64078 c -0.339815,-0.14673 -0.677696,-0.30061 -1.009759,-0.46664 a 0.26460995,0.26460995 0 0 0 -0.117305,-0.0274 z" />
      <path
         id="path1148"
         d="M 27.570312,271.54688 A 0.26460996,0.26460996 0 0 0 27.3125,271.875 l 0.265625,1.05859 a 0.26460996,0.26460996 0 0 0 0.255859,0.20118 h 1.058594 a 0.26460996,0.26460996 0 0 0 0.25586,-0.20118 l 0.265624,-1.05859 a 0.26460996,0.26460996 0 0 0 -0.257812,-0.32812 z"
         style="color:#000000;font-style:normal;font-variant:normal;font-weight:normal;font-stretch:normal;font-size:medium;line-height:normal;font-family:sans-serif;font-variant-ligatures:normal;font-variant-position:normal;font-variant-caps:normal;font-variant-numeric:normal;font-variant-alternates:normal;font-variant-east-asian:normal;font-feature-settings:normal;font-variation-settings:normal;text-indent:0;text-align:start;text-decoration:none;text-decoration-line:none;text-decoration-style:solid;text-decoration-color:#000000;letter-spacing:normal;word-spacing:normal;text-transform:none;writing-mode:lr-tb;direction:ltr;text-orientation:mixed;dominant-baseline:auto;baseline-shift:baseline;text-anchor:start;white-space:normal;shape-padding:0;shape-margin:0;inline-size:0;clip-rule:nonzero;display:inline;overflow:visible;visibility:visible;isolation:auto;mix-blend-mode:normal;color-interpolation:sRGB;color-interpolation-filters:linearRGB;solid-color:#000000;solid-opacity:1;vector-effect:none;fill:#283842;fill-opacity:1;fill-rule:nonzero;stroke:none;stroke-width:0.429603;stroke-linecap:round;stroke-linejoin:round;stroke-miterlimit:4;stroke-dasharray:none;stroke-dashoffset:0;stroke-opacity:1;color-rendering:auto;image-rendering:auto;shape-rendering:auto;text-rendering:auto;enable-background:accumulate;stop-color:#000000" />
      <path
         id="path1162"
         d="m 27.833984,272.60547 a 0.26460996,0.26460996 0 0 0 -0.263672,0.26367 v 1.58203 a 0.26460996,0.26460996 0 0 0 0.263672,0.26563 h 1.058594 a 0.26460996,0.26460996 0 0 0 0.263672,-0.26563 v -1.58203 a 0.26460996,0.26460996 0 0 0 -0.263672,-0.26367 z"
         style="color:#000000;font-style:normal;font-variant:normal;font-weight:normal;font-stretch:normal;font-size:medium;line-height:normal;font-family:sans-serif;font-variant-ligatures:normal;font-variant-position:normal;font-variant-caps:normal;font-variant-numeric:normal;font-variant-alternates:normal;font-variant-east-asian:normal;font-feature-settings:normal;font-variation-settings:normal;text-indent:0;text-align:start;text-decoration:none;text-decoration-line:none;text-decoration-style:solid;text-decoration-color:#000000;letter-spacing:normal;word-spacing:normal;text-transform:none;writing-mode:lr-tb;direction:ltr;text-orientation:mixed;dominant-baseline:auto;baseline-shift:baseline;text-anchor:start;white-space:normal;shape-padding:0;shape-margin:0;inline-size:0;clip-rule:nonzero;display:inline;overflow:visible;visibility:visible;isolation:auto;mix-blend-mode:normal;color-interpolation:sRGB;color-interpolation-filters:linearRGB;solid-color:#000000;solid-opacity:1;vector-effect:none;fill:#283842;fill-opacity:1;fill-rule:nonzero;stroke:none;stroke-width:0.429603;stroke-linecap:round;stroke-linejoin:round;stroke-miterlimit:4;stroke-dasharray:none;stroke-dashoffset:0;stroke-opacity:1;color-rendering:auto;image-rendering:auto;shape-rendering:auto;text-rendering:auto;enable-background:accumulate;stop-color:#000000" />
      <path
         id="path1141"
         d="m 29.640625,272.16602 0.002,0.004 -0.002,-0.002 c -1.34e-4,-6.1e-4 1.26e-4,-0.001 0,-0.002 z"
         style="color:#000000;font-style:normal;font-variant:normal;font-weight:normal;font-stretch:normal;font-size:medium;line-height:normal;font-family:sans-serif;font-variant-ligatures:normal;font-variant-position:normal;font-variant-caps:normal;font-variant-numeric:normal;font-variant-alternates:normal;font-variant-east-asian:normal;font-feature-settings:normal;font-variation-settings:normal;text-indent:0;text-align:start;text-decoration:none;text-decoration-line:none;text-decoration-style:solid;text-decoration-color:#000000;letter-spacing:normal;word-spacing:normal;text-transform:none;writing-mode:lr-tb;direction:ltr;text-orientation:mixed;dominant-baseline:auto;baseline-shift:baseline;text-anchor:start;white-space:normal;shape-padding:0;shape-margin:0;inline-size:0;clip-rule:nonzero;display:inline;overflow:visible;visibility:visible;isolation:auto;mix-blend-mode:normal;color-interpolation:sRGB;color-interpolation-filters:linearRGB;solid-color:#000000;solid-opacity:1;vector-effect:none;fill:#16496e;fill-opacity:1;fill-rule:nonzero;stroke:none;stroke-width:0.429603;stroke-linecap:round;stroke-linejoin:round;stroke-miterlimit:4;stroke-dasharray:none;stroke-dashoffset:0;stroke-opacity:1;color-rendering:auto;image-rendering:auto;shape-rendering:auto;text-rendering:auto;enable-background:accumulate;stop-color:#000000" />
      <path
         id="path1131"
         d="m 27.304688,269.69531 a 0.26460996,0.26460996 0 0 0 -0.257813,0.20703 l -0.478516,2.15235 c -0.03243,0.14636 0.0388,0.29797 0.148438,0.37304 0.109642,0.0751 0.275635,0.087 0.400391,0.004 l 1.246093,-0.83203 1.246094,0.83203 c 0.124753,0.0831 0.290749,0.0712 0.400391,-0.004 0.109641,-0.0751 0.180864,-0.22669 0.148437,-0.37304 l -0.478515,-2.15235 a 0.26460996,0.26460996 0 0 0 -0.257813,-0.20703 z"
         style="color:#000000;font-style:normal;font-variant:normal;font-weight:normal;font-stretch:normal;font-size:medium;line-height:normal;font-family:sans-serif;font-variant-ligatures:normal;font-variant-position:normal;font-variant-caps:normal;font-variant-numeric:normal;font-variant-alternates:normal;font-variant-east-asian:normal;font-feature-settings:normal;font-variation-settings:normal;text-indent:0;text-align:start;text-decoration:none;text-decoration-line:none;text-decoration-style:solid;text-decoration-color:#000000;letter-spacing:normal;word-spacing:normal;text-transform:none;writing-mode:lr-tb;direction:ltr;text-orientation:mixed;dominant-baseline:auto;baseline-shift:baseline;text-anchor:start;white-space:normal;shape-padding:0;shape-margin:0;inline-size:0;clip-rule:nonzero;display:inline;overflow:visible;visibility:visible;isolation:auto;mix-blend-mode:normal;color-interpolation:sRGB;color-interpolation-filters:linearRGB;solid-color:#000000;solid-opacity:1;vector-effect:none;fill:#16496e;fill-opacity:1;fill-rule:nonzero;stroke:none;stroke-width:0.429603;stroke-linecap:round;stroke-linejoin:round;stroke-miterlimit:4;stroke-dasharray:none;stroke-dashoffset:0;stroke-opacity:1;color-rendering:auto;image-rendering:auto;shape-rendering:auto;text-rendering:auto;enable-background:accumulate;stop-color:#000000" />
      <path
         id="path1086"
         d="m 26.125,269.67383 a 0.26460996,0.26460996 0 0 0 -0.06836,0.01 l -1.664063,0.44532 a 0.26460996,0.26460996 0 0 0 -0.185547,0.32421 l 0.285157,1.06836 a 0.26460996,0.26460996 0 0 0 0.324218,0.1875 l 1.664063,-0.44531 a 0.26460996,0.26460996 0 0 0 0.185547,-0.32422 l -0.285157,-1.06836 A 0.26460996,0.26460996 0 0 0 26.125,269.67383 Z"
         style="color:#000000;font-style:normal;font-variant:normal;font-weight:normal;font-stretch:normal;font-size:medium;line-height:normal;font-family:sans-serif;font-variant-ligatures:normal;font-variant-position:normal;font-variant-caps:normal;font-variant-numeric:normal;font-variant-alternates:normal;font-variant-east-asian:normal;font-feature-settings:normal;font-variation-settings:normal;text-indent:0;text-align:start;text-decoration:none;text-decoration-line:none;text-decoration-style:solid;text-decoration-color:#000000;letter-spacing:normal;word-spacing:normal;text-transform:none;writing-mode:lr-tb;direction:ltr;text-orientation:mixed;dominant-baseline:auto;baseline-shift:baseline;text-anchor:start;white-space:normal;shape-padding:0;shape-margin:0;inline-size:0;clip-rule:nonzero;display:inline;overflow:visible;visibility:visible;isolation:auto;mix-blend-mode:normal;color-interpolation:sRGB;color-interpolation-filters:linearRGB;solid-color:#000000;solid-opacity:1;vector-effect:none;fill:#febe40;fill-opacity:1;fill-rule:nonzero;stroke:none;stroke-width:0.429603;stroke-linecap:round;stroke-linejoin:round;stroke-miterlimit:4;stroke-dasharray:none;stroke-dashoffset:0;stroke-opacity:1;color-rendering:auto;image-rendering:auto;shape-rendering:auto;text-rendering:auto;enable-background:accumulate;stop-color:#000000" />
      <path
         id="path1117"
         d="m 30.552734,269.67383 a 0.26460996,0.26460996 0 0 0 -0.238281,0.19726 l -0.287109,1.06836 a 0.26460996,0.26460996 0 0 0 0.1875,0.32422 l 1.662109,0.44531 a 0.26460996,0.26460996 0 0 0 0.324219,-0.1875 l 0.287109,-1.06836 a 0.26460996,0.26460996 0 0 0 -0.1875,-0.32421 l -1.662109,-0.44532 a 0.26460996,0.26460996 0 0 0 -0.08594,-0.01 z"
         style="color:#000000;font-style:normal;font-variant:normal;font-weight:normal;font-stretch:normal;font-size:medium;line-height:normal;font-family:sans-serif;font-variant-ligatures:normal;font-variant-position:normal;font-variant-caps:normal;font-variant-numeric:normal;font-variant-alternates:normal;font-variant-east-asian:normal;font-feature-settings:normal;font-variation-settings:normal;text-indent:0;text-align:start;text-decoration:none;text-decoration-line:none;text-decoration-style:solid;text-decoration-color:#000000;letter-spacing:normal;word-spacing:normal;text-transform:none;writing-mode:lr-tb;direction:ltr;text-orientation:mixed;dominant-baseline:auto;baseline-shift:baseline;text-anchor:start;white-space:normal;shape-padding:0;shape-margin:0;inline-size:0;clip-rule:nonzero;display:inline;overflow:visible;visibility:visible;isolation:auto;mix-blend-mode:normal;color-interpolation:sRGB;color-interpolation-filters:linearRGB;solid-color:#000000;solid-opacity:1;vector-effect:none;fill:#febe40;fill-opacity:1;fill-rule:nonzero;stroke:none;stroke-width:0.429603;stroke-linecap:round;stroke-linejoin:round;stroke-miterlimit:4;stroke-dasharray:none;stroke-dashoffset:0;stroke-opacity:1;color-rendering:auto;image-rendering:auto;shape-rendering:auto;text-rendering:auto;enable-background:accumulate;stop-color:#000000" />
      <path
         d="m 27.304793,269.69521 a 0.26460995,0.26460995 0 0 0 -0.101803,0.0196 l -0.782897,0.32711 c 1.165137,0.89576 2.682377,0.99631 3.856095,0.0258 -0.247573,-0.11043 -0.494043,-0.22377 -0.736906,-0.3452 a 0.26460995,0.26460995 0 0 0 -0.117306,-0.0274 z"
         style="fill:#174f75;fill-opacity:1;stroke:none;stroke-width:0.429603;stroke-linecap:round;stroke-linejoin:round;stroke-opacity:1"
         id="path1288" />
      <path
         d="m 27.304793,269.69521 a 0.26460995,0.26460995 0 0 0 -0.257865,0.20722 l -0.105421,0.47491 c 0.905812,0.47823 1.941939,0.51845 2.848406,0.0191 l -0.110072,-0.49403 a 0.26460995,0.26460995 0 0 0 -0.257865,-0.20722 z"
         style="fill:#144061;fill-opacity:1;stroke:none;stroke-width:0.429603;stroke-linecap:round;stroke-linejoin:round;stroke-opacity:1"
         id="path1286" />
      <path
         id="path1196"
         d="m 26.246094,267.8418 a 0.26460996,0.26460996 0 0 0 -0.265625,0.26367 c 1e-6,0.85075 0.454629,1.63712 1.191406,2.0625 0.736778,0.42538 1.646034,0.42538 2.382813,0 0.736776,-0.42538 1.191405,-1.21175 1.191406,-2.0625 a 0.26460996,0.26460996 0 0 0 -0.265625,-0.26367 z"
         style="color:#000000;font-style:normal;font-variant:normal;font-weight:normal;font-stretch:normal;font-size:medium;line-height:normal;font-family:sans-serif;font-variant-ligatures:normal;font-variant-position:normal;font-variant-caps:normal;font-variant-numeric:normal;font-variant-alternates:normal;font-variant-east-asian:normal;font-feature-settings:normal;font-variation-settings:normal;text-indent:0;text-align:start;text-decoration:none;text-decoration-line:none;text-decoration-style:solid;text-decoration-color:#000000;letter-spacing:normal;word-spacing:normal;text-transform:none;writing-mode:lr-tb;direction:ltr;text-orientation:mixed;dominant-baseline:auto;baseline-shift:baseline;text-anchor:start;white-space:normal;shape-padding:0;shape-margin:0;inline-size:0;clip-rule:nonzero;display:inline;overflow:visible;visibility:visible;isolation:auto;mix-blend-mode:normal;color-interpolation:sRGB;color-interpolation-filters:linearRGB;solid-color:#000000;solid-opacity:1;vector-effect:none;fill:#f8c09d;fill-opacity:1;fill-rule:nonzero;stroke:none;stroke-width:0.429603;stroke-linecap:round;stroke-linejoin:round;stroke-miterlimit:4;stroke-dasharray:none;stroke-dashoffset:0;stroke-opacity:1;color-rendering:auto;image-rendering:auto;shape-rendering:auto;text-rendering:auto;enable-background:accumulate;stop-color:#000000" />
      <path
         id="path1179"
         d="m 26.245871,266.78583 a 0.26438606,0.26438606 0 0 0 -0.263449,0.2654 v 1.05379 a 0.26438606,0.26438606 0 0 0 0.263449,0.2654 h 4.228841 a 0.26438606,0.26438606 0 0 0 0.2654,-0.2654 v -1.05379 a 0.26438606,0.26438606 0 0 0 -0.2654,-0.2654 z"
         style="color:#000000;font-style:normal;font-variant:normal;font-weight:normal;font-stretch:normal;font-size:medium;line-height:normal;font-family:sans-serif;font-variant-ligatures:normal;font-variant-position:normal;font-variant-caps:normal;font-variant-numeric:normal;font-variant-alternates:normal;font-variant-east-asian:normal;font-feature-settings:normal;font-variation-settings:normal;text-indent:0;text-align:start;text-decoration:none;text-decoration-line:none;text-decoration-style:solid;text-decoration-color:#000000;letter-spacing:normal;word-spacing:normal;text-transform:none;writing-mode:lr-tb;direction:ltr;text-orientation:mixed;dominant-baseline:auto;baseline-shift:baseline;text-anchor:start;white-space:normal;shape-padding:0;shape-margin:0;inline-size:0;clip-rule:nonzero;display:inline;overflow:visible;visibility:visible;isolation:auto;mix-blend-mode:normal;color-interpolation:sRGB;color-interpolation-filters:linearRGB;solid-color:#000000;solid-opacity:1;vector-effect:none;fill:#16496e;fill-opacity:1;fill-rule:nonzero;stroke:none;stroke-width:0.429603;stroke-linecap:round;stroke-linejoin:round;stroke-miterlimit:4;stroke-dasharray:none;stroke-dashoffset:0;stroke-opacity:1;color-rendering:auto;image-rendering:auto;shape-rendering:auto;text-rendering:auto;enable-background:accumulate;stop-color:#000000" />
      <path
         d="m 28.355374,262.55094 a 0.26460995,0.26460995 0 0 0 -0.146243,0.0506 c -0.559485,0.4019 -1.61223,0.87389 -2.451014,1.43557 0.788997,1.55688 3.973527,0.80783 4.282426,1.11673 0.241937,0.24194 0.05572,1.27992 0.05478,2.16059 h 0.38499 a 0.26460995,0.26460995 0 0 0 0.117306,-0.0294 c 0.94153,-0.47077 1.439772,-0.92597 1.558562,-1.45676 0.0594,-0.26539 0.0054,-0.53127 -0.115239,-0.75964 -0.12061,-0.22837 -0.302273,-0.42997 -0.517282,-0.61754 -0.86003,-0.75029 -2.313728,-1.3522 -3.006018,-1.8495 a 0.26460995,0.26460995 0 0 0 -0.162264,-0.0506 z"
         style="fill:#18527a;fill-opacity:1;stroke:none;stroke-width:0.429603;stroke-linecap:round;stroke-linejoin:round;stroke-opacity:1"
         id="path1252" />
      <path
         id="path1072"
         d="m 27.705078,264.4043 a 0.26460996,0.26460996 0 0 0 -0.259766,0.22265 c -0.04524,0.28512 -0.03973,0.58455 0.08203,0.86719 0.121758,0.28264 0.356621,0.53239 0.707031,0.72852 a 0.26460996,0.26460996 0 0 0 0.257813,0 c 0.35041,-0.19613 0.585272,-0.44588 0.707031,-0.72852 0.121758,-0.28264 0.127269,-0.58207 0.08203,-0.86719 a 0.26460996,0.26460996 0 0 0 -0.259766,-0.22265 h -0.658203 z"
         style="color:#000000;font-style:normal;font-variant:normal;font-weight:normal;font-stretch:normal;font-size:medium;line-height:normal;font-family:sans-serif;font-variant-ligatures:normal;font-variant-position:normal;font-variant-caps:normal;font-variant-numeric:normal;font-variant-alternates:normal;font-variant-east-asian:normal;font-feature-settings:normal;font-variation-settings:normal;text-indent:0;text-align:start;text-decoration:none;text-decoration-line:none;text-decoration-style:solid;text-decoration-color:#000000;letter-spacing:normal;word-spacing:normal;text-transform:none;writing-mode:lr-tb;direction:ltr;text-orientation:mixed;dominant-baseline:auto;baseline-shift:baseline;text-anchor:start;white-space:normal;shape-padding:0;shape-margin:0;inline-size:0;clip-rule:nonzero;display:inline;overflow:visible;visibility:visible;isolation:auto;mix-blend-mode:normal;color-interpolation:sRGB;color-interpolation-filters:linearRGB;solid-color:#000000;solid-opacity:1;vector-effect:none;fill:#febe40;fill-opacity:1;fill-rule:nonzero;stroke:none;stroke-width:0.429603;stroke-linecap:round;stroke-linejoin:round;stroke-miterlimit:4;stroke-dasharray:none;stroke-dashoffset:0;stroke-opacity:1;color-rendering:auto;image-rendering:auto;shape-rendering:auto;text-rendering:auto;enable-background:accumulate;stop-color:#000000" />
      <path
         d="m 30.11134,266.78583 c -0.03462,0.61611 -0.03745,1.24176 0.182935,1.5844 h 0.180351 a 0.26438606,0.26438606 0 0 0 0.265615,-0.2651 v -1.05369 a 0.26438606,0.26438606 0 0 0 -0.265615,-0.26561 z"
         style="fill:#123957;fill-opacity:1;stroke:none;stroke-width:0.429603;stroke-linecap:round;stroke-linejoin:round;stroke-opacity:1"
         id="path1250" />
      <path
         d="m 25.982393,267.85769 v 0.26407 a 0.26460995,0.26460995 0 0 0 0.26355,0.26561 h 4.232816 a 0.26460995,0.26460995 0 0 0 0.265618,-0.26561 v -0.26407 z"
         style="color:#000000;font-style:normal;font-variant:normal;font-weight:normal;font-stretch:normal;font-size:medium;line-height:normal;font-family:sans-serif;font-variant-ligatures:normal;font-variant-position:normal;font-variant-caps:normal;font-variant-numeric:normal;font-variant-alternates:normal;font-variant-east-asian:normal;font-feature-settings:normal;font-variation-settings:normal;text-indent:0;text-align:start;text-decoration:none;text-decoration-line:none;text-decoration-style:solid;text-decoration-color:#000000;letter-spacing:normal;word-spacing:normal;text-transform:none;writing-mode:lr-tb;direction:ltr;text-orientation:mixed;dominant-baseline:auto;baseline-shift:baseline;text-anchor:start;white-space:normal;shape-padding:0;shape-margin:0;inline-size:0;clip-rule:nonzero;display:inline;overflow:visible;visibility:visible;isolation:auto;mix-blend-mode:normal;color-interpolation:sRGB;color-interpolation-filters:linearRGB;solid-color:#000000;solid-opacity:1;vector-effect:none;fill:#f8c09d;fill-opacity:1;fill-rule:nonzero;stroke:none;stroke-width:0.429603;stroke-linecap:round;stroke-linejoin:round;stroke-miterlimit:4;stroke-dasharray:none;stroke-dashoffset:0;stroke-opacity:1;color-rendering:auto;image-rendering:auto;shape-rendering:auto;text-rendering:auto;enable-background:accumulate;stop-color:#000000"
         id="path1236" />
      <path
         d="m 27.705285,264.40406 a 0.26460995,0.26460995 0 0 0 -0.259932,0.22272 c -0.01881,0.11863 -0.02569,0.23987 -0.02223,0.36122 0.362178,0.0687 0.887249,-0.0657 1.102776,0.14986 0.171762,0.17177 0.334044,0.43656 0.512114,0.62219 0.06457,-0.0851 0.1212,-0.17321 0.161232,-0.26614 0.121756,-0.28264 0.127402,-0.58201 0.08216,-0.86713 a 0.26460995,0.26460995 0 0 0 -0.259932,-0.22272 h -0.658357 z"
         style="fill:#e5ab37;fill-opacity:1;stroke:none;stroke-width:0.429603;stroke-linecap:round;stroke-linejoin:round;stroke-opacity:1"
         id="path1262" />
      <path
         d="m 26.12502,269.67402 a 0.26460995,0.26460995 0 0 0 -0.06821,0.01 l -1.663981,0.44545 a 0.26460995,0.26460995 0 0 0 -0.186035,0.32401 l 0.04031,0.15193 c 0.540742,0.0225 1.283861,-0.13787 1.507919,-0.0258 0.247154,0.12357 0.290148,0.49039 0.433565,0.76274 l 0.291971,-0.078 a 0.26460995,0.26460995 0 0 0 0.18552,-0.32453 l -0.285255,-1.06815 a 0.26460995,0.26460995 0 0 0 -0.255798,-0.1974 z"
         style="fill:#e5ab37;fill-opacity:1;stroke:none;stroke-width:0.429603;stroke-linecap:round;stroke-linejoin:round;stroke-opacity:1"
         id="path1269" />
      <path
         d="m 30.552657,269.6735 v 5.3e-4 a 0.26460995,0.26460995 0 0 0 -0.238228,0.19689 l -0.10387,0.38654 c 0.288784,0.24518 0.920847,0.0687 1.2423,0.39016 0.239207,0.23921 0.287618,0.81437 0.569476,1.02577 0.01008,0.008 0.02405,0.0125 0.03565,0.0191 a 0.26460995,0.26460995 0 0 0 0.143145,-0.17104 l 0.287322,-1.06816 a 0.26460995,0.26460995 0 0 0 -0.187587,-0.32452 l -1.66243,-0.44494 a 0.26460995,0.26460995 0 0 0 -0.08578,-0.0103 z"
         style="fill:#e5ab37;fill-opacity:1;stroke:none;stroke-width:0.429603;stroke-linecap:round;stroke-linejoin:round;stroke-opacity:1"
         id="path1278" />
    </g>
  </g>
</svg>
