<svg xmlns="http://www.w3.org/2000/svg" viewBox="0 0 40 40" fill="none">
  <path d="M0 19.2C0 12.4794 0 9.11905 1.30792 6.55211C2.4584 4.29417 4.29417 2.4584 6.55211 1.30792C9.11905 0 12.4794 0 19.2 0H20.8C27.5206 0 30.8809 0 33.4479 1.30792C35.7058 2.4584 37.5416 4.29417 38.6921 6.55211C40 9.11905 40 12.4794 40 19.2V20.8C40 27.5206 40 30.8809 38.6921 33.4479C37.5416 35.7058 35.7058 37.5416 33.4479 38.6921C30.8809 40 27.5206 40 20.8 40H19.2C12.4794 40 9.11905 40 6.55211 38.6921C4.29417 37.5416 2.4584 35.7058 1.30792 33.4479C0 30.8809 0 27.5206 0 20.8V19.2Z" fill="#86909C"/>
  <path fill-rule="evenodd" clip-rule="evenodd" d="M29.9817 14.9026C30.1448 14.3937 29.9817 14.0236 29.2594 14.0236H26.8595C26.2537 14.0236 25.9741 14.3475 25.811 14.6944C25.811 14.6944 24.5762 17.6553 22.852 19.5752C22.2928 20.1304 22.0365 20.3154 21.7336 20.3154C21.5705 20.3154 21.3608 20.1304 21.3608 19.6215V14.8795C21.3608 14.2781 21.1744 14.0005 20.6618 14.0005H16.8873C16.5145 14.0005 16.2815 14.2781 16.2815 14.5556C16.2815 15.1339 17.1436 15.2727 17.2368 16.8919V20.408C17.2368 21.1713 17.097 21.3101 16.7941 21.3101C15.9786 21.3101 13.9981 18.3261 12.8098 14.9258C12.5768 14.2549 12.3438 14.0005 11.738 14.0005H9.31488C8.61589 14.0005 8.49939 14.3243 8.49939 14.6713C8.49939 15.2959 9.31488 18.4418 12.2972 22.6055C14.2777 25.4507 17.097 26.9774 19.6366 26.9774C21.1744 26.9774 21.3608 26.6304 21.3608 26.0521V23.9008C21.3608 23.2069 21.5006 23.0912 21.9899 23.0912C22.3394 23.0912 22.9685 23.2763 24.3898 24.6411C26.0207 26.2603 26.3003 27.0005 27.209 27.0005H29.6089C30.3079 27.0005 30.6341 26.6535 30.4477 25.9827C30.238 25.3119 29.4458 24.3403 28.4206 23.1838C27.8614 22.5361 27.0226 21.819 26.7663 21.472C26.4168 21.0094 26.51 20.8243 26.7663 20.408C26.743 20.408 29.6788 16.2905 29.9817 14.9026Z" fill="white"/>
</svg>
