<svg viewBox="0 0 40 40" fill="none" xmlns="http://www.w3.org/2000/svg">
<path d="M0 19.2C0 12.4794 0 9.11905 1.30792 6.55211C2.4584 4.29417 4.29417 2.4584 6.55211 1.30792C9.11905 0 12.4794 0 19.2 0H20.8C27.5206 0 30.8809 0 33.4479 1.30792C35.7058 2.4584 37.5416 4.29417 38.6921 6.55211C40 9.11905 40 12.4794 40 19.2V20.8C40 27.5206 40 30.8809 38.6921 33.4479C37.5416 35.7058 35.7058 37.5416 33.4479 38.6921C30.8809 40 27.5206 40 20.8 40H19.2C12.4794 40 9.11905 40 6.55211 38.6921C4.29417 37.5416 2.4584 35.7058 1.30792 33.4479C0 30.8809 0 27.5206 0 20.8V19.2Z" fill="#86909C"/>
<path d="M31.7505 16.8263C31.5388 14.8834 30.1323 13.6253 28.2495 13.3797C26.2079 13.1117 24.4537 13.0074 20.0151 13.0074C15.4253 13.0074 13.8072 13.1191 11.758 13.3797C9.80718 13.6328 8.42344 14.8685 8.25709 16.8263C8.21928 17.2283 8 18.5236 8 20.6749C8 22.2308 8.21928 23.7419 8.24953 24.1141C8.42344 26.0422 9.80718 27.2705 11.758 27.5682C13.7996 27.8809 15.3119 28 20.0151 28C24.7032 28 26.2079 27.8288 28.2495 27.5682C30.2457 27.3151 31.5917 26.1166 31.7505 24.1216C31.7807 23.7345 32 22.4541 32 20.4963C32 18.4789 31.7958 17.2134 31.7505 16.8263Z" fill="white"/>
<path d="M18.3667 17.6006L23.6446 20.6006L18.3667 23.6006V17.6006Z" fill="#86909C"/>
</svg>
